<svg xmlns="http://www.w3.org/2000/svg" xmlns:xlink="http://www.w3.org/1999/xlink" width="1515.592" height="994.528" viewBox="0 0 1515.592 994.528"><defs><style>.a{clip-path:url(#a);}.b{fill:#8f3b2e;}.c{clip-path:url(#f);}.d{fill:#e18427;}.e{clip-path:url(#m);}.f{fill:#b34729;}.g{clip-path:url(#u);}.h{fill:#488e8e;}.i{clip-path:url(#ac);}.j{fill:#bb6228;}.k{clip-path:url(#ar);}.l{fill:#fcba17;}.m{clip-path:url(#ba);}.n{fill:#065668;}.o{clip-path:url(#bh);}.p{fill:#bc2462;}.q{clip-path:url(#br);}.r{fill:#e11665;}.s{clip-path:url(#by);}.t{fill:#8a1947;}.u{clip-path:url(#cf);}.v{fill:#f26534;}.w{clip-path:url(#cl);}.x{fill:#b2dee1;}.y{clip-path:url(#cu);}.z{fill:#047aa9;}.aa{clip-path:url(#dc);}.ab{fill:#0086ca;}.ac{clip-path:url(#eb);}.ad{fill:#73c7c9;}</style><clipPath id="a"><path d="M513.875,539.277s-5.21,54.482-49.273,72.716-126.33-71.847-126.33-71.847S147.258,304.85,133.8,265.562l59.909-68.374s21.489-10.853,48.839,17.8c0,0,40.59,32.993,62.3,63.165S408.383,420.327,408.383,420.327,487.394,534.719,513.875,539.277Z" transform="translate(-133.8 -195.171)"/></clipPath><clipPath id="f"><path d="M281.7,340.538s53.831-45.583,115.477-21.706c61.428,23.66,74.886,76.84,74.886,76.84s19.1,53.18-15.194,87.91-39.288,35.164-39.288,35.164,14.977-60.56-27.784-121.12S281.7,340.538,281.7,340.538Z" transform="translate(-281.7 -311.912)"/></clipPath><clipPath id="m"><path d="M252.4,240.1s99.2,32.342,121.989,149.556-31.908,161.711-39.505,164.533l107.88-34.079s47.1-27.784,25.4-112.221-86.608-112-86.608-112S296.247,246.395,252.4,240.1Z" transform="translate(-252.4 -240.1)"/></clipPath><clipPath id="u"><path d="M209.3,675.476s8.248-116.345,76.623-167.138,117.865-24.745,117.865-24.745-16.28-45.583-37.986-56.87c-21.706-11.5-51.878-15.194-80.747-6.729S216.468,441.7,176.311,492.71c-40.374,51.01-23.009,89.646-23.009,89.646S146.574,594.078,209.3,675.476Z" transform="translate(-149.589 -415.37)"/></clipPath><clipPath id="ac"><path d="M176.887,487.932s-43.2,26.7-18.884,51.227,39.505,30.172,94.2,44.932c0,0,17.148,8.682,84.22-92.9s33.862-63.6,67.94-112.872c34.079-49.49,66.2-63.816,66.2-63.816s-75.755,25.4-168.223,95.724C302.349,410.007,236.145,454.722,176.887,487.932Z" transform="translate(-150.581 -314.5)"/></clipPath><clipPath id="ar"><path d="M151.3,448.667l28.652,123.725s10.2,32.342,40.591,39.939c30.172,7.6,81.832,6.512,81.832,6.512s99.631-4.124,180.161-48.188S632.526,375.3,632.526,375.3s-39.722,57.738-95.941,81.615-114.609,39.505-114.609,39.505-90.3,23.66-161.494,9.117C189.72,491.428,163.89,482.094,151.3,448.667Z" transform="translate(-151.3 -375.3)"/></clipPath><clipPath id="ba"><path d="M538.32,576.1s56.219,8.9,72.281,56-83.135,126.764-83.135,126.764-257.435,183.2-299.111,194.7l-67.289-66.855s-9.768-23.226,21.923-49.707c0,0,37.118-40.156,69.894-60.777S407.648,677.9,407.648,677.9,532.025,603.233,538.32,576.1Z" transform="translate(-159.646 -576.1)"/></clipPath><clipPath id="bh"><path d="M59.259,407.74s-22.791,34.079,4.124,46.885,41.459,15.629,107.229.651c0,0,29.955-57.521,36.032-148.47s1.954-146.3,34.947-186.456c-1.085-3.473-73.367,90.081-113.523,174.518C105.493,342.4,70.329,384.3,59.259,407.74Z" transform="translate(-50.249 -120.257)"/></clipPath><clipPath id="br"><path d="M50.2,409.677s66.638,92.468,92.251,113.957c25.613,21.706,78.142,2.822,78.142,2.822s111.57-52.312,167.572-128.718S438.741,281.61,438.741,281.61l9.334-133.71s-3.69,67.506-91.6,154.765-149.99,108.1-149.99,108.1S95.566,461.988,50.2,409.677Z" transform="translate(-50.2 -147.9)"/></clipPath><clipPath id="by"><path d="M131,168.338s31.04-62.948,90.732-69.677S320.061,127.1,320.061,127.1s31.257,26.7,32.993,64.684-18.884,71.847-18.884,71.847-18.667-59.692-74.886-89S162.04,153.578,131,168.338Z" transform="translate(-131 -97.806)"/></clipPath><clipPath id="cf"><path d="M123.768,283.508l79.01-86.608s-13.024,47.1,60.343,71.63c0,0,122.206,16.28,138.485,21.923,16.28,5.427,54.048,27.35,67.94,45.8,0,0-19.1-11.938-118.516,5.21s-173,12.155-203.821-15.411C115.954,298.485,123.768,283.508,123.768,283.508Z" transform="translate(-122.9 -196.9)"/></clipPath><clipPath id="cl"><path d="M246.5,419.1s65.77,42.544,109.182,92.468c0,0,36.466,49.49,61.646,135.013S455.965,772.042,447.5,799.175a43.459,43.459,0,0,1-4.558,13.892s-9.768,7.38-25.179,6.512-58.39-5.426-86.391-14.326c0,0-24.311-93.12-34.947-176.688s-7.163-92.034-11.287-115.477S283.4,464.466,246.5,419.1Z" transform="translate(-246.5 -419.1)"/></clipPath><clipPath id="cu"><path d="M246.588,954.781,161.5,866.871s48.188,16.714,78.359-57.956c0,0,24.962-126.113,31.908-142.61,6.729-16.5,32.125-54.483,52.095-67.506,0,0-13.675,19.1-2.388,123.725s1.3,180.813-29.52,211.2C261.566,963.681,246.588,954.781,246.588,954.781Z" transform="translate(-161.5 -598.8)"/></clipPath><clipPath id="dc"><path d="M213.9,745.669s40.156-101.151,163.665-117.213S543.617,672.3,546.222,680.334L517.786,565.725s-25.83-50.793-115.043-33.862-122.206,82.7-122.206,82.7S223.234,700.3,213.9,745.669Z" transform="translate(-213.9 -528.408)"/></clipPath><clipPath id="eb"><path d="M151.7,499.8s52.746,110.919,192.968,173S525.481,727.064,560.21,721.42c0,0,.434,12.59-46.451,42.761s-64.033,41.893-100.717,44.281S327.3,772.647,327.3,772.647s-55.568-48.839-90.3-103.756S151.7,499.8,151.7,499.8Z" transform="translate(-151.7 -499.8)"/></clipPath></defs><g transform="matrix(0.574, -0.819, 0.819, 0.574, -148.892, 348.811)"><g transform="translate(231.664 309.149)"><g class="a"><path class="b" d="M225.465,187.5l22.792,22.14L222.644,295.6l55.351-56.87L301,261.084,200.938,363.971l-23.009-22.357,25.4-85.305-54.917,56.436L125.4,290.387Z" transform="translate(-143.633 -204.151)"/></g><g class="a"><path class="b" d="M264.243,223.3l24.528,32.342-32.342,85.739,60.343-55.134,21.706,23.66L229.513,409.322l-21.706-23.66,31.908-85.088-59.909,54.7L158.1,331.614Z" transform="translate(-105.354 -162.243)"/></g><g class="a"><path class="b" d="M302.621,265.1,325.2,298.745l-37.335,83.569,63.382-51.444,20.187,24.962-114.609,92.9-20.187-24.962,36.9-83.135-62.948,51.01L190.4,366.685Z" transform="translate(-67.543 -113.311)"/></g><g class="a"><path class="b" d="M329.526,310.2l16.931,28.869-39.288,70.762,60.777-43.847,17.8,19.536L274.827,466.05,259.2,444.561l39.071-70.328-59.041,42.761L223.6,395.505Z" transform="translate(-28.678 -60.516)"/></g><g class="a"><path class="b" d="M364.516,344.2l8.682,19.97-48.622,56.87,61.863-38.854,11.5,13.024-112.872,71.2-9.117-14.543,48.188-56.436L264.017,433.2,254.9,418.652Z" transform="translate(7.962 -20.715)"/></g></g><g transform="translate(552.698 562.549)"><g class="c" transform="translate(0 0)"><path class="d" d="M304.372,321.114l-2.822,16.28,7.38,1.3-.868,4.775L283.1,339.13l.868-4.775,7.6,1.3,2.822-16.28-7.6-1.3.868-4.775,24.962,4.341-.868,4.775Z" transform="translate(-280.061 -310.288)"/></g><g class="c" transform="translate(0 0)"><path class="d" d="M317.357,323.3,313.45,342.84l7.38,1.519-1.737,7.163L295,345.228l1.085-5.861,7.38,1.519,3.907-19.536-7.38-1.52,1.085-5.861,28.435-2.171-4.775,13.024Z" transform="translate(-266.131 -312.044)"/></g><g class="c" transform="translate(0 0)"><path class="d" d="M352.668,337.937l-12.807,28,12.372,6.946-7.6,12.373L306,358.124l2.6-9.334,14.977,7.6,9.985-22.574-19.753-4.124,7.814-21.489,56.219,14.326-8.031,20.4Z" transform="translate(-253.254 -316.258)"/></g><g class="c" transform="translate(0 0)"><path class="d" d="M345.038,376.111l25.83-29.52L350.03,335.738l8.248-20.838,53.831,43.2-11.5,9.985L387.365,358.1,358.93,389.786l10.419,10.853L352.2,416.7l-28-38.42,7.814-11.938Z" transform="translate(-231.949 -308.415)"/></g><g class="c" transform="translate(0 0)"><path class="d" d="M365.052,398.516l31.691-22.792-8.465-29.3L401.084,334.7l33.645,74.452L408.247,418.7l-4.124-23.66-29.737,23.226,6.512,18.016-26.047,4.341L336.4,396.78l19.97-18.233Z" transform="translate(-217.667 -285.237)"/></g><g class="c" transform="translate(0 0)"><path class="d" d="M369.116,409.437l19.753-3.473,12.59-28,19.319-7.163L405.8,439.392l-20.621-3.039,2.6-16.063-24.311,4.558-2.6,12.373L342.2,431.143l4.992-31.257,26.7-4.558Z" transform="translate(-210.878 -242.977)"/></g><g class="c" transform="translate(0 0)"><path class="d" d="M366.913,417.784l19.753,6.295,24.311-19.1,21.055,2.6-44.715,54.048-17.8-12.59,9.551-13.024-24.311-7.38-8.031,9.768L332.4,424.3l18.667-25.4,26.7,8.465Z" transform="translate(-222.35 -210.083)"/></g></g><g transform="translate(489.099 406.672)"><g class="e"><path class="f" d="M276.1,237.4l6.295,5.209-.868,17.8,9.117-10.853,6.295,5.427-16.5,19.753-6.295-5.427.868-17.582-9.117,10.853-6.295-5.21Z" transform="translate(-243.972 -243.261)"/></g><g class="e"><path class="f" d="M288.7,243.9l8.031,7.163L292.823,269.3l11.07-10.419,5.644,6.078L289.35,283.839l-5.644-6.078,3.907-18.016-11.07,10.419-5.644-6.078Z" transform="translate(-230.744 -235.652)"/></g><g class="e"><path class="f" d="M304.843,250.7l8.031,7.163-6.295,20.4,13.458-12.59,5.644,6.078-24.528,22.792-5.644-6.078,6.078-20.4-13.458,12.59-6.729-8.031Z" transform="translate(-218.452 -227.691)"/></g><g class="e"><path class="f" d="M323.862,257.5l8.465,6.729-12.59,26.264,19.753-18.45,5.644,6.078-35.815,33.427-5.644-6.078,12.373-26.047-19.536,18.233L290,289.408Z" transform="translate(-208.385 -219.731)"/></g><g class="e"><path class="f" d="M340.547,266.6l9.985,7.814-17.148,32.993L359,283.531l6.512,7.163-49.056,45.583-3.907-9.768,16.931-32.776L304.3,317.392l-7.6-9.768Z" transform="translate(-200.542 -209.079)"/></g><g class="e"><path class="f" d="M366.819,277.1l27.35,27.133-38.42,50.792,52.963-22.574,7.6,18.016L320.8,391.057l-7.6-18.016L362.26,315.3l-58.824,34.513L301.7,336.141Z" transform="translate(-194.689 -196.787)"/></g><g class="e"><path class="f" d="M413.816,311.7l9.768,30.389-60.343,38.637,67.289-13.458,2.822,14.326L304.2,407.424l4.558-15.845,63.6-37.986-67.072,22.574-.217-18.45Z" transform="translate(-191.762 -156.284)"/></g><g class="e"><path class="f" d="M423.715,347.8l3.039,31.908-67.289,24.745,68.592,1.519-.217,14.543L296.3,417.694l7.814-14.543,70.328-23.226-70.545,7.6,3.69-18.016Z" transform="translate(-201.01 -114.024)"/></g></g><g transform="translate(265.936 787.115)"><g class="g" transform="translate(0 0)"><path class="h" d="M169.7,467.661,236.989,416l8.682,21.272L206.6,465.924,217.02,479.6l34.73-26.916,7.38,19.536-30.172,23.009,24.311,31.908-24.094,18.45Z" transform="translate(-126.047 -414.631)"/></g><g class="g" transform="translate(0 0)"><path class="h" d="M203.5,427.043,269.053,412.5l.651,16.063-36.466,11.07,4.992,13.241,34.3-10.2,1.737,14.76-28.218,9.551,9.985,29.737-22.574,7.6Z" transform="translate(-86.481 -418.729)"/></g><g class="g" transform="translate(0 0)"><path class="h" d="M146.4,512.682,192.851,440.4l13.675,17.148-24.962,40.591,14.977,9.551,22.791-35.164,12.807,16.28-15.846,27.784,34.079,19.97-12.59,21.923Z" transform="translate(-153.323 -386.068)"/></g><g class="g" transform="translate(0 0)"><path class="h" d="M145.4,546.528l9.117-70.328,16.28,7.814-4.124,39.071,14.543,1.954,4.558-34.3,15.194,7.6L199.014,524.6l32.559,2.822-1.519,20.838Z" transform="translate(-154.493 -344.16)"/></g><g class="g" transform="translate(0 0)"><path class="h" d="M167.892,552.7,154,509.717h11.5l8.248,23.66,8.9-2.822L175.923,509.5l10.853.217,6.078,15.628,19.536-7.38,4.775,12.373Z" transform="translate(-144.426 -305.178)"/></g><g class="g" transform="translate(0 0)"><path class="h" d="M191.54,572.441,160.5,539.448l10.419-4.775,17.582,17.8,6.729-6.295-15.194-16.063,9.985-4.558,12.155,11.721L216.719,522.3l9.551,9.117Z" transform="translate(-136.817 -290.195)"/></g><g class="g" transform="translate(0 0)"><path class="h" d="M235.9,415.3l57.087,13.892-3.039,12.372-29.737-4.775-1.085,11.07,28.652,5.209L283,463.7l-23.226-3.039-3.256,24.528-16.063-3.039Z" transform="translate(-48.552 -415.451)"/></g><g class="g" transform="translate(0 0)"><path class="h" d="M271.4,430.3l26.264,24.745-5.427,5.644-14.543-11.5-3.907,5.644,12.59,9.551-4.558,6.078-11.5-8.682L261.2,473.929l-7.6-6.512Z" transform="translate(-27.833 -397.892)"/></g></g><g transform="translate(268.088 568.166)"><g class="i" transform="translate(0 0)"><path class="j" d="M207.487,412.608l59.041,52.312,14.326-16.28,20.4,17.148-51.01,52.529-17.365-15.411,14.543-16.28-59.041-52.312-14.543,16.28L150.4,430.841,204.665,380.7l17.365,15.411Z" transform="translate(-150.792 -237.005)"/></g><g class="i" transform="translate(0 0)"><path class="j" d="M231.812,391.582l49.49,43.846,12.155-13.675L308,434.777,267.627,480.36l-14.76-12.373,12.156-14.326-49.49-43.847L203.377,423.49,179.5,402.652,228.99,365.1l14.543,13.024Z" transform="translate(-116.727 -255.267)"/></g><g class="i" transform="translate(0 0)"><path class="j" d="M182.665,439.962l64.033,54.7,14.977-17.582,18.884,16.28L230.2,552.4l-18.884-16.28,15.194-17.8-64.033-54.7-15.194,17.8L128.4,465.141,178.758,406.1l18.884,16.28Z" transform="translate(-176.546 -207.271)"/></g><g class="i" transform="translate(0 0)"><path class="j" d="M248.185,374.121l40.591,36.032,6.729-11.287L309.831,410.8l-28.218,33.862-12.155-10.2,9.117-9.985-45.583-39.505-13.241,6.295-18.45-16.5L245.146,353.5l15.846,13.458Z" transform="translate(-91.208 -268.846)"/></g><g class="i" transform="translate(0 0)"><path class="j" d="M256.862,363.165l26.916,24.094,5.209-8.031,12.155,10.2-20.621,25.83-10.2-8.248,5.861-9.985-30.606-26.916-9.334,5.209L223,363.6l29.52-17.8,13.458,12.155Z" transform="translate(-65.805 -277.86)"/></g><g class="i" transform="translate(0 0)"><path class="j" d="M263.447,352.224l20.4,18.016,4.775-6.295,8.248,7.814-16.714,21.055L273,386.52l4.775-7.163L255.2,360.689l-5.426,4.558-12.373-11.5L260.626,339.2l8.682,8.248Z" transform="translate(-48.948 -285.586)"/></g><g class="i" transform="translate(0 0)"><path class="j" d="M271.209,344.087,286.4,357.328l4.124-4.992,6.295,5.644-14.76,16.714-5.427-4.775,4.124-5.21-17.8-15.628-5.209,4.558-9.551-9.117L267.953,332.8l7.814,7.38Z" transform="translate(-36.306 -293.078)"/></g><g class="i" transform="translate(0 0)"><path class="j" d="M276.033,336.417l11.07,9.768,3.473-4.341,3.039,2.6-10.853,16.5-3.256-2.822,3.039-5.209-13.024-11.5-4.558,4.124L257.8,338.37l16.931-11.07,6.295,5.644Z" transform="translate(-25.068 -299.516)"/></g><g class="i" transform="translate(0 0)"><path class="j" d="M277.57,330.21l8.465,7.6,2.171-2.6,3.256,2.822-7.6,8.682-2.822-2.388,2.171-2.822-9.117-8.031-2.822,2.171-4.775-4.558L276.7,325l3.69,3.473Z" transform="translate(-14.883 -302.209)"/></g><g class="i" transform="translate(0 0)"><path class="j" d="M279.965,326.856l5.644,5.209,1.3-1.736,3.256,3.039-5.209,5.209-2.6-2.388,1.3-1.954-6.946-6.078-1.954,1.3-3.256-3.69,8.031-2.171,2.388,2.388Z" transform="translate(-9.03 -303.847)"/></g><g class="i" transform="translate(0 0)"><path class="j" d="M282.346,324.888l3.907,3.69,1.3-1.085,2.388,2.171-4.775,4.558-2.822-2.6,1.52-1.3-4.341-3.907-2.171.868-1.954-2.6,6.512-2.171,1.736,1.737Z" transform="translate(-4.465 -305.135)"/></g><g class="i" transform="translate(0 0)"><path class="j" d="M284.895,323.171l3.039,2.822,1.3-1.085,1.954,1.736-4.558,4.558-2.388-2.171,1.736-1.3-3.256-3.039-2.171.868-1.954-1.736L284.895,321l1.3,1.3Z" transform="translate(-0.719 -306.891)"/></g><g class="i" transform="translate(0 0)"><path class="j" d="M287.361,321.471l2.388,2.171,1.3-1.085L293,324.509l-4.992,3.907-1.954-1.736,1.52-1.3-2.6-2.388-1.954,1.085-1.52-1.52,5.861-3.256,1.085,1.085Z" transform="translate(2.676 -308.881)"/></g><g class="i" transform="translate(0 0)"><path class="j" d="M289.575,319.654l2.171,1.954,1.3-1.085,1.736,1.737-4.775,4.124-1.519-1.519,1.519-1.3-2.171-2.171-1.736,1.085-1.3-1.3,5.644-3.473.868.868Z" transform="translate(6.539 -310.754)"/></g><g class="i" transform="translate(0 0)"><path class="j" d="M292.527,317.637l1.736,2.171,1.52-.868,1.3,1.954-5.427,3.473-1.3-1.736,1.736-1.085-1.954-2.388-1.954.868L287.1,318.5l6.078-2.6.651,1.085Z" transform="translate(9.231 -312.861)"/></g></g><g transform="translate(269.649 700.14)"><g class="k" transform="translate(0 0)"><path class="l" d="M257.292,460l-.868,69.243,21.272.217-.217,20.4-70.979-.868.217-20.4,21.272.217.868-69.243-21.272-.217-.434-24.745,71.63,5.209-.217,20.4Z" transform="translate(-86.682 -305.882)"/></g><g class="k" transform="translate(0 0)"><path class="l" d="M291.375,471.581,290.29,530.4l19.97-4.124.868,35.381-70.328-.868.217-20.4,21.489-6.512.651-62.514-21.272-.217-.434-24.745,66.638-19.1,4.341,44.715Z" transform="translate(-46.53 -314.428)"/></g><g class="k" transform="translate(0 0)"><path class="l" d="M329.2,461.876l5.427,41.459,17.148-8.9,6.078,23.443-80.747,55.134V534.375l30.606-21.489L300.984,473.6l-23.009,5.644L273.2,439.084,340.706,420.2l6.512,31.04Z" transform="translate(-8.602 -322.739)"/></g><g class="k" transform="translate(0 0)"><path class="l" d="M358.029,442.093l4.341,26.482L375.394,454.9l12.373,26.047-65.118,47.1-5.427-22.574,24.311-21.706L333.067,454.9l-20.838,7.38L305.5,432.326,366.711,409.1l8.031,22.574Z" transform="translate(29.209 -335.733)"/></g><g class="k" transform="translate(0 0)"><path class="l" d="M364.572,419.387l17.582,30.606,9.117-5.427,5.644,9.334-44.932,27.133-8.031-16.28,15.411-21.272L352.2,432.193l-9.117,9.768L334.4,420.038,363.486,399.2l8.9,13.675Z" transform="translate(63.04 -347.322)"/></g><g class="k" transform="translate(0 0)"><path class="l" d="M372.56,402.226l15.194,16.063,6.729-6.729,4.775,4.775-32.776,32.776-7.163-8.9,10.419-19.753-6.295-5.861-6.512,9.768L348.9,411.56l21.055-23.66,7.6,6.946Z" transform="translate(80.014 -360.55)"/></g><g class="k" transform="translate(0 0)"><path class="l" d="M377.253,386.124l19.1,11.287,4.558-8.248,6.078,3.256-22.357,40.591L375.3,426.28l4.558-21.923-7.6-3.907-3.473,11.07L357.5,401.535,371.175,373.1l9.117,4.558Z" transform="translate(90.081 -377.875)"/></g><g class="k" transform="translate(0 0)"><path class="l" d="M233.355,464.722l-16.063,63.6,41.893,13.024-.434,23.226L157.6,543.516l14.977-38.42,19.536,14.326,14.543-62.3-20.838-5.861L191.679,425l69.677,23.443-1.519,24.528Z" transform="translate(-143.925 -317.12)"/></g><g class="k" transform="translate(0 0)"><path class="l" d="M200.45,449.637l-23.226,44.5,31.257,18.45-4.124,17.365L127.3,493.484l18.233-25.83,13.241,14.76L180.48,438.35l-15.628-8.682,8.9-18.667,51.661,31.908L220.2,460.924Z" transform="translate(-179.395 -333.509)"/></g></g><g transform="translate(287.764 1136)"><g class="m"><path class="n" d="M227.7,675.464l21.923-13.892,38.637,32.559-12.807-48.839L297.377,631.4l19.536,85.956,32.125,50.576-19.753,12.59L297.16,729.946Z" transform="translate(-79.98 -511.365)"/></g><g class="m"><path class="n" d="M259.4,654.732l22.574-12.807,36.466,33.427L306.5,626.514,329.511,609.8l16.063,89.429,28.652,50.793-20.4,11.5L325.17,710.734Z" transform="translate(-42.871 -536.65)"/></g><g class="m"><path class="n" d="M290.7,637.361l22.574-12.807,36.466,33.428-11.287-54.917L362.547,585.7l14.109,96.158,28.652,50.793-20.4,11.5-28.652-50.792Z" transform="translate(-6.231 -564.862)"/></g><g class="m"><path class="n" d="M320.3,601.4l24.528-8.682,29.954,39.288-1.3-56L400.4,563.2l-3.039,97.027,19.318,55.134-22.14,7.814-19.318-55.134Z" transform="translate(28.419 -591.201)"/></g><g class="m"><path class="n" d="M195.4,695.664l21.923-13.892,38.637,32.559-12.807-48.839L265.077,651.6l19.536,85.956,32.125,50.575-19.753,12.59L264.86,750.146Z" transform="translate(-117.791 -487.718)"/></g><g class="m"><path class="n" d="M167.7,729.407l18.45-18.45,44.932,23.226L207.639,689.25l18.233-18.45,37.986,79.445,42.327,42.327-16.5,16.714-42.327-42.327Z" transform="translate(-150.217 -465.242)"/></g><g class="m"><path class="n" d="M146.9,762.853l13.024-20.621,45.8,12.155-30.389-36.466L188.359,697.3l51.01,65.119,47.319,30.172-11.938,18.667-47.1-29.955Z" transform="translate(-174.566 -434.221)"/></g></g><g transform="translate(50.307 146.538)"><g class="o"><path class="p" d="M74.313,253.092,86.252,230.3l63.382,33.645a78.458,78.458,0,0,1,16.714,11.5,52.108,52.108,0,0,1,11.287,14.109c2.6,5.21,3.907,9.768,3.907,13.892a35.8,35.8,0,0,1-4.992,17.8,65.436,65.436,0,0,1-7.38,11.07c-3.039,3.907-6.295,6.729-9.985,8.248-3.69,1.736-8.031,2.6-13.241,3.039a41.206,41.206,0,0,1-14.76-1.736,94.993,94.993,0,0,1-19.1-7.38L48.7,300.845l11.938-22.792,64.9,34.513c5.861,3.039,10.853,4.341,15.411,3.907a11.917,11.917,0,0,0,9.768-6.729,11.363,11.363,0,0,0,0-11.721c-1.954-3.907-6.078-7.38-11.938-10.636Z" transform="translate(-52.063 8.562)"/></g><g class="o"><path class="p" d="M91.76,221.255,102.83,200.2l55.351,29.3a64.568,64.568,0,0,1,14.543,10.2,43.012,43.012,0,0,1,9.551,12.59,30.084,30.084,0,0,1,3.256,12.59c0,5.21-1.737,10.636-4.775,16.5a75.71,75.71,0,0,1-6.729,10.419c-2.822,3.69-5.644,6.295-8.9,7.814-3.256,1.737-7.163,2.6-11.938,3.039a37,37,0,0,1-13.024-1.085,81.793,81.793,0,0,1-16.714-6.295L68.1,265.97l11.07-21.055,56.653,29.955c4.992,2.6,9.551,3.69,13.458,3.256a11.65,11.65,0,0,0,8.9-6.295,11.338,11.338,0,0,0,.217-10.853c-1.736-3.473-5.209-6.729-10.2-9.334Z" transform="translate(-29.353 -26.674)"/></g><g class="o"><path class="p" d="M107.36,190.155,118.43,169.1l42.978,22.791a38.83,38.83,0,0,1,11.07,8.248,29.273,29.273,0,0,1,6.729,11.07,25.057,25.057,0,0,1,1.519,11.721,48.429,48.429,0,0,1-5.427,16.063,99.253,99.253,0,0,1-6.512,10.419c-2.6,3.69-5.209,6.512-8.248,8.248a25.334,25.334,0,0,1-9.985,3.907,22,22,0,0,1-10.636,0,47.167,47.167,0,0,1-13.241-4.558L83.7,234.219l11.07-21.055,44.064,23.226a14.364,14.364,0,0,0,10.853,1.737c3.256-.868,5.861-3.256,7.814-6.729,1.954-3.69,2.388-7.163,1.3-10.2-1.085-3.256-3.69-5.861-7.6-8.031Z" transform="translate(-11.091 -63.08)"/></g><g class="o"><path class="p" d="M118.028,164.438l6.946-11.938L148.2,165.958a21.659,21.659,0,0,1,5.861,4.775,15.84,15.84,0,0,1,3.473,6.512,14.518,14.518,0,0,1,.434,6.729,25.98,25.98,0,0,1-3.69,9.117,43.073,43.073,0,0,1-4.124,6.078,19.812,19.812,0,0,1-4.775,4.775,17.233,17.233,0,0,1-5.861,2.171,14.335,14.335,0,0,1-6.078,0,19.764,19.764,0,0,1-7.163-2.822L102.4,190.7l7.6-13.024,23.877,13.892a7.888,7.888,0,0,0,6.078,1.085,6.712,6.712,0,0,0,4.558-3.907,7.519,7.519,0,0,0,1.085-5.861c-.434-1.954-1.736-3.473-3.907-4.775Z" transform="translate(10.8 -82.512)"/></g><g class="o"><path class="p" d="M122.351,148.946,126.692,142l13.458,8.465a23.233,23.233,0,0,1,3.473,3.039,11.018,11.018,0,0,1,1.954,3.907,8.205,8.205,0,0,1,.217,3.907,13.986,13.986,0,0,1-2.388,5.209c-.651,1.085-1.519,2.171-2.388,3.473a11.423,11.423,0,0,1-3.039,2.6,9.3,9.3,0,0,1-3.473,1.085,6.2,6.2,0,0,1-3.473-.217,20.1,20.1,0,0,1-4.341-1.737L112.8,163.706l4.775-7.38,13.892,8.682a4.1,4.1,0,0,0,6.295-1.3,4.1,4.1,0,0,0,.651-3.473,5.275,5.275,0,0,0-2.171-2.822Z" transform="translate(22.974 -94.804)"/></g><g class="o"><path class="p" d="M126.546,140.241l2.822-4.341,8.9,6.078a6.9,6.9,0,0,1,2.171,2.171,7.335,7.335,0,0,1,1.3,2.6,5.29,5.29,0,0,1,0,2.6,7.38,7.38,0,0,1-1.519,3.256c-.434.651-1.085,1.3-1.737,2.171a5.984,5.984,0,0,1-1.954,1.519,7.7,7.7,0,0,1-2.388.651,8.138,8.138,0,0,1-2.388-.217,17.565,17.565,0,0,1-2.822-1.3l-9.334-5.644,3.039-4.558,9.117,6.078a2.584,2.584,0,0,0,2.388.651,3.45,3.45,0,0,0,1.954-1.3,2.673,2.673,0,0,0,.434-2.171,4.013,4.013,0,0,0-1.519-1.954Z" transform="translate(30.934 -101.944)"/></g><g class="o"><path class="p" d="M128.641,134.622l1.954-2.822,5.644,3.69a3.685,3.685,0,0,1,1.3,1.3,2.465,2.465,0,0,1,.651,1.736,2.4,2.4,0,0,1,0,1.737,5.111,5.111,0,0,1-1.085,2.171,9.361,9.361,0,0,1-2.388,2.388,3.137,3.137,0,0,1-1.519.434,3.694,3.694,0,0,1-1.519-.217,4.363,4.363,0,0,1-1.736-.868L124.3,140.7l1.954-3.039,5.644,3.69a2.067,2.067,0,0,0,1.519.434c.434,0,.868-.434,1.3-.868a3.137,3.137,0,0,0,.434-1.519c0-.434-.434-.868-.868-1.3Z" transform="translate(36.436 -106.744)"/></g><g class="o"><path class="p" d="M130.422,131.036l1.3-1.736,3.69,2.388a1.7,1.7,0,0,1,.868.868c.217.434.434.651.434,1.085v1.085a2.886,2.886,0,0,1-.651,1.519c-.217.217-.434.651-.651.868s-.651.651-.868.651a1.3,1.3,0,0,1-.868.217h-1.085a3.666,3.666,0,0,0-1.085-.434l-3.907-2.388,1.3-1.954,3.907,2.6a1.957,1.957,0,0,0,1.085.217,1.163,1.163,0,0,0,.868-.651,1.305,1.305,0,0,0,.217-.868,1.163,1.163,0,0,0-.651-.868Z" transform="translate(40.299 -109.671)"/></g><g class="o"><path class="p" d="M132.4,128.419l1.085-1.519,2.822,1.954.651.651c.217.217.217.651.434.868v.868a1.876,1.876,0,0,1-.651,1.3,3,3,0,0,0-.651.868l-.651.651c-.217.217-.434.217-.868.217h-.868a1.128,1.128,0,0,1-.868-.434l-3.039-1.736,1.085-1.737,2.822,1.954c.217.217.434.217.868.217.217,0,.434-.217.651-.434s.217-.434.217-.868c0-.217-.217-.434-.434-.651Z" transform="translate(42.874 -112.48)"/></g><g class="o"><path class="p" d="M133.554,126.385l.651-1.085,2.171,1.519c.217.217.434.217.434.434a.8.8,0,0,1,.217.651v.651c0,.217-.217.434-.434.868-.217.217-.217.434-.434.434l-.434.434c-.217,0-.434.217-.651.217h-.651c-.217,0-.434-.217-.651-.217l-2.171-1.3.868-1.085,2.171,1.519a.8.8,0,0,0,.651.217.758.758,0,0,0,.434-.217.672.672,0,0,0,.217-.434.467.467,0,0,0-.434-.434Z" transform="translate(44.982 -114.353)"/></g></g><g transform="translate(50.2 206.541)"><g class="q"><path class="r" d="M165.2,376.257c3.256,5.861,6.295,9.117,9.117,10.2a11.968,11.968,0,0,0,14.543-8.031c.651-3.039-.651-7.38-3.907-13.241l-49.924-90.949L170.193,262.3,213.6,338.706c4.775,8.465,7.6,15.845,8.9,22.574s1.085,12.59-.651,18.016a32.747,32.747,0,0,1-9.551,14.326c-4.558,4.124-6.295,3.473-18.667,7.163a145.016,145.016,0,0,1-17.365,4.341c-6.295,1.3-9.334,1.3-15.628,1.736-5.644.217-13.458,1.736-18.45-2.822s-9.985-8.682-14.76-16.931L73.6,287.262l37.552-6.729Z" transform="translate(-22.808 -13.981)"/></g><g class="q"><path class="r" d="M172.544,258.358,196.855,244.9l39.288,61.429c3.69,6.295,6.729,15.194,6.946,21.055A81.29,81.29,0,0,1,242,345.4c-.868,5.861-4.124,10.2-6.512,13.675-3.473,4.992-8.465,9.334-15.194,13.024a83.58,83.58,0,0,1-13.241,5.861,31.651,31.651,0,0,1-13.675,1.954,36.61,36.61,0,0,1-13.458-4.558,43.053,43.053,0,0,1-11.938-9.334,99.139,99.139,0,0,1-12.155-16.5L121.1,286.793l24.311-13.458,35.6,64.25c3.256,5.644,6.946,9.551,11.07,11.5a13.03,13.03,0,0,0,12.59-.651c4.124-2.388,6.512-5.644,7.163-10.2s-.651-9.768-3.907-15.629Z" transform="translate(32.797 -34.35)"/></g><g class="q"><path class="r" d="M201.8,235.294l22.14-15.194,38.2,55.785a75.026,75.026,0,0,1,8.682,17.148,47.82,47.82,0,0,1,2.6,17.148,29.121,29.121,0,0,1-3.69,13.892c-2.822,4.992-7.38,9.551-13.458,13.675a89.832,89.832,0,0,1-12.155,6.946,30.321,30.321,0,0,1-13.024,3.256,34.641,34.641,0,0,1-13.241-2.822,38.483,38.483,0,0,1-12.155-7.6A75.9,75.9,0,0,1,192.9,322.987L154.7,267.2l22.14-15.194L215.911,309.1c3.473,5.21,7.38,8.465,11.5,9.768a14.172,14.172,0,0,0,18.016-12.372c.217-4.341-1.519-9.117-4.992-14.326Z" transform="translate(72.13 -63.381)"/></g><g class="q"><path class="r" d="M223.8,214.453,236.61,194.7l37.335,54.265a56.145,56.145,0,0,1,7.38,14.326,36.84,36.84,0,0,1,2.388,14.326c-.217,4.775-1.085,8.465-2.822,11.5a35.537,35.537,0,0,1-10.853,11.287,60.6,60.6,0,0,1-9.985,5.644,25.458,25.458,0,0,1-10.636,2.6,27.182,27.182,0,0,1-10.853-2.6,31.806,31.806,0,0,1-9.985-6.512,76.857,76.857,0,0,1-10.853-12.155L185.6,240.5l18.233-12.373L236.61,276.1c3.039,4.341,6.078,6.946,9.551,8.248a10.534,10.534,0,0,0,9.768-1.519,11.037,11.037,0,0,0,4.992-8.682c.217-3.69-1.3-7.6-4.341-11.938Z" transform="translate(108.302 -93.115)"/></g><g class="q"><path class="r" d="M113.5,383.657c3.256,5.861,6.295,9.117,9.117,10.2a11.968,11.968,0,0,0,14.543-8.031c.651-3.039-.651-7.38-3.907-13.241L83.328,281.638,118.493,269.7,161.9,346.106c4.775,8.465,7.6,15.845,8.9,22.574s1.085,12.59-.651,18.016a32.747,32.747,0,0,1-9.551,14.326c-4.558,4.124-6.295,3.473-18.667,7.163a145.027,145.027,0,0,1-17.365,4.341c-6.295,1.3-9.334,1.3-15.628,1.736-5.644.217-13.458,1.736-18.45-2.822s-9.985-8.682-14.76-16.931L21.9,294.662l37.552-6.729Z" transform="translate(-83.329 -5.319)"/></g><g class="q"><path class="r" d="M237.023,188.5l9.985-16.5,30.606,38.42a42.158,42.158,0,0,1,6.078,10.419,24.029,24.029,0,0,1,1.954,10.853,18.849,18.849,0,0,1-2.171,9.117c-1.737,3.473-4.775,6.729-8.682,9.768a81.3,81.3,0,0,1-7.814,5.209c-3.039,1.736-4.992,3.256-7.814,3.473-2.6.217-6.078.868-9.334-.217a28.339,28.339,0,0,1-8.682-3.69,54.813,54.813,0,0,1-9.551-8.9l-25.4-34.079,14.326-11.287,26.916,33.862a13.993,13.993,0,0,0,7.814,5.427,8.258,8.258,0,0,0,7.814-2.171,9.989,9.989,0,0,0,3.907-7.163c0-2.822-1.085-5.644-3.473-8.9Z" transform="translate(132.416 -119.688)"/></g><g class="q"><path class="r" d="M250.823,161.2l9.985-16.5,30.606,38.42a42.157,42.157,0,0,1,6.078,10.419,24.028,24.028,0,0,1,1.954,10.853,18.849,18.849,0,0,1-2.171,9.117c-1.737,3.473-4.775,6.729-8.682,9.768a81.3,81.3,0,0,1-7.814,5.209c-3.039,1.736-4.992,3.256-7.814,3.473-2.6.217-6.078.868-9.334-.217a28.339,28.339,0,0,1-8.682-3.69,54.812,54.812,0,0,1-9.551-8.9L220,185.073l14.326-11.287,26.916,33.862a13.993,13.993,0,0,0,7.814,5.427,8.258,8.258,0,0,0,7.814-2.171,9.989,9.989,0,0,0,3.907-7.163c0-2.822-1.085-5.644-3.473-8.9Z" transform="translate(148.571 -151.646)"/></g></g><g transform="translate(225.586 97.806)"><g class="s"><path class="t" d="M167.293,106l15.628-2.6,5.209,31.04a30.559,30.559,0,0,1,0,8.9,17.7,17.7,0,0,1-3.256,7.814,19.033,19.033,0,0,1-5.644,5.427,29.226,29.226,0,0,1-10.636,3.473,80.521,80.521,0,0,1-8.248.868,20.345,20.345,0,0,1-7.6-.868,20.165,20.165,0,0,1-10.419-9.117,34.96,34.96,0,0,1-2.822-8.465l-5.209-31.04,15.628-2.6,5.21,31.691c.434,2.822,1.519,4.992,3.473,6.295a8.7,8.7,0,0,0,6.729,1.3c2.6-.434,4.775-1.519,5.861-3.473q1.954-2.6,1.3-7.163Z" transform="translate(-127.137 -91.257)"/></g><g class="s"><path class="t" d="M195.788,96.3l17.8.434L212.5,138.193a43.665,43.665,0,0,1-1.519,10.853,28.714,28.714,0,0,1-4.558,8.9c-2.171,2.6-4.124,4.341-6.512,5.209a28.062,28.062,0,0,1-11.07,1.954,38.114,38.114,0,0,1-8.248-.868,15.062,15.062,0,0,1-7.38-2.822,22.575,22.575,0,0,1-5.427-5.644,25.935,25.935,0,0,1-3.256-7.6c-.868-4.124-1.519-6.946-1.954-10.636L156.5,98.688l20.621-1.519,1.954,41.242c0,3.473.651,6.295,2.171,8.248a7.842,7.842,0,0,0,6.512,3.039,7.687,7.687,0,0,0,6.512-2.822,13.311,13.311,0,0,0,2.388-8.248Z" transform="translate(-101.149 -99.568)"/></g><g class="s"><path class="t" d="M228.393,103.98l17.148,5.209-13.892,47.754a54.975,54.975,0,0,1-4.992,12.155,30.374,30.374,0,0,1-7.163,9.117,21.309,21.309,0,0,1-7.814,4.558c-3.473.868-7.163.651-11.5-.434a42.622,42.622,0,0,1-7.6-3.039,18.354,18.354,0,0,1-6.295-4.992,22.96,22.96,0,0,1-3.473-8.031,29.07,29.07,0,0,1-.868-9.551c.434-4.341.651-7.163,1.519-12.807L185.415,96.6l24.528,4.341L199.09,149.129c-1.085,4.124-1.3,7.38-.434,10.2a7.061,7.061,0,0,0,5.209,5.209,7.367,7.367,0,0,0,7.163-1.737c2.171-1.736,3.69-4.775,4.992-8.9Z" transform="translate(-71.458 -99.217)"/></g><g class="s"><path class="t" d="M269.055,138.045l19.1,16.714-37.335,35.164c-3.039,3.473-6.729,5.427-9.985,7.814a34.32,34.32,0,0,1-10.419,5.427c-3.69,1.085-6.729,1.3-9.334.651-3.69-.651-7.163-2.6-10.636-5.427a80.056,80.056,0,0,1-6.078-6.078,18.766,18.766,0,0,1-3.907-7.38,20.409,20.409,0,0,1,0-8.9,56.131,56.131,0,0,1,3.039-9.117c1.736-3.907,3.256-7.814,4.992-11.5l17.582-51.01,26.482,22.791L222.6,167.348c-2.822,3.256-4.341,6.295-4.558,9.334a8.255,8.255,0,0,0,2.822,7.163,7.557,7.557,0,0,0,7.38,1.519c2.822-.868,5.644-2.822,8.465-6.295Z" transform="translate(-50.257 -90.086)"/></g><g class="s"><path class="t" d="M269.5,165.32l5.644,13.892-33.428,10.2c-3.039,1.3-5.644,1.3-8.465,1.954a24.331,24.331,0,0,1-7.814.434,10.25,10.25,0,0,1-5.644-1.954,12.757,12.757,0,0,1-4.341-5.644,30.734,30.734,0,0,1-1.519-4.775,9.65,9.65,0,0,1,.217-4.992,14.01,14.01,0,0,1,3.039-4.992,31.124,31.124,0,0,1,4.992-4.341c2.388-1.736,4.558-3.473,6.729-5.209l27.35-24.094,7.814,19.1-30.823,14.977A13.526,13.526,0,0,0,227.386,174a4.361,4.361,0,0,0,3.256,7.163,14.879,14.879,0,0,0,6.946-1.3Z" transform="translate(-34.2 -53.329)"/></g><g class="s"><path class="t" d="M245.976,179.036l-1.519,9.117-16.063-4.558c-1.519-.217-2.6-1.085-3.907-1.519a8.586,8.586,0,0,1-3.256-2.171,6.087,6.087,0,0,1-1.737-2.6,9.454,9.454,0,0,1-.217-4.341c.217-.868.434-1.954.651-3.039a7.5,7.5,0,0,1,1.519-2.6,9.638,9.638,0,0,1,2.388-1.737,22.27,22.27,0,0,1,3.039-.868c1.3-.217,2.822-.434,4.124-.651l17.365-4.558-1.954,12.59-16.28-1.3a5.933,5.933,0,0,0-3.473.434,3.137,3.137,0,0,0-1.519,2.171,2.792,2.792,0,0,0,.868,2.6,5.684,5.684,0,0,0,3.256,1.3Z" transform="translate(-27.828 -25.585)"/></g><g class="s"><path class="t" d="M144.893,113.7l15.628-2.6,5.209,31.04a30.559,30.559,0,0,1,0,8.9,17.7,17.7,0,0,1-3.256,7.814,19.034,19.034,0,0,1-5.644,5.427,29.225,29.225,0,0,1-10.636,3.473,80.524,80.524,0,0,1-8.248.868,20.346,20.346,0,0,1-7.6-.868,20.165,20.165,0,0,1-10.419-9.117,34.959,34.959,0,0,1-2.822-8.465l-5.209-31.04,15.628-2.6,5.209,31.691c.434,2.822,1.519,4.992,3.473,6.295a8.7,8.7,0,0,0,6.729,1.3c2.6-.434,4.775-1.519,5.861-3.473q1.954-2.6,1.3-7.163Z" transform="translate(-153.359 -82.243)"/></g></g><g transform="translate(208.004 312.901)"><g class="u"><path class="v" d="M210.3,195.1l20.621,19.1L206.4,294.514l51.444-55.351,20.838,19.318-92.9,100.065-20.838-19.318,24.094-79.662-50.792,54.7L117.4,294.948Z" transform="translate(-129.338 -199.007)"/></g><g class="u"><path class="v" d="M235.279,227.8l15.411,6.078-3.473,41.893,23.226-42.978,23.443,9.334L246.132,330.47l-27.35.651,12.59-59.041-39.722,53.614L155.4,314.842Z" transform="translate(-84.855 -160.728)"/></g><g class="u"><path class="v" d="M245.359,235.471l11.721,1.736,4.558,29.955,9.117-33.862,18.016,2.6-18.884,69.677L251,310.574l-1.085-43.412-18.884,44.064L203.9,309.706Z" transform="translate(-28.08 -154.29)"/></g><g class="u"><path class="v" d="M252.311,237.4l14.977,3.69,9.334,22.792,7.6-24.094,12.59,1.737L283.568,290.8,270.11,294.27l-8.031-33.862L256,294.921l-19.1-1.085Z" transform="translate(10.55 -149.49)"/></g><g class="u"><path class="v" d="M269.565,246.2l8.248,1.954,5.209,12.59,4.124-13.241,6.946,1.085-7.38,27.133-7.38,1.954-4.341-18.667-3.256,18.884L261.1,277.24Z" transform="translate(38.879 -139.189)"/></g><g class="u"><path class="v" d="M278.892,253.9l4.775,1.085,3.039,7.163,2.388-7.814,4.124.651-4.341,15.628-4.341,1.085-2.6-10.853-1.954,11.07-6.078-.434Z" transform="translate(53.863 -130.175)"/></g></g><g transform="translate(476.292 795.213)"><g class="w" transform="translate(0 0)"><path class="x" d="M382.83,486l15.194,87.042-25.179,4.341-9.117-51.661-20.4,3.69,7.814,44.063L327.48,577.6l-7.814-44.063L271.695,542,265.4,506.621Z" transform="translate(-224.375 -340.786)"/></g><g class="w" transform="translate(0 0)"><path class="x" d="M402.588,526.4l17.148,97.244-28.218,4.992-10.2-57.738L358.525,574.8l8.682,49.273-26.482,4.558-8.682-49.273-53.4,9.334L271.7,549.191Z" transform="translate(-217.001 -293.493)"/></g><g class="w" transform="translate(0 0)"><path class="x" d="M411.322,572.5l15.411,97.461-28.218,4.558L389.4,616.564l-23.009,3.69,7.814,49.49-26.482,4.124-7.814-49.49-53.614,8.465L280,593.121Z" transform="translate(-207.284 -239.527)"/></g><g class="w" transform="translate(0 0)"><path class="x" d="M349.5,450.5l31.908,75.1-21.272,3.907L341.474,487.4l-16.5,6.946,16.063,39.505-20.187,3.907-14.977-35.6-38.637,16.28L255.3,490.005Z" transform="translate(-236.199 -382.343)"/></g><g class="w" transform="translate(0 0)"><path class="x" d="M301.51,437.6l23.66,33.428-9.985,4.341L301.51,456.7l-7.38,5.209,12.155,17.8-9.551,4.124-11.287-15.845L268.3,480.144l-8.9-12.59Z" transform="translate(-231.399 -397.444)"/></g><g class="w" transform="translate(0 0)"><path class="x" d="M277.753,431.7l18.016,15.845-5.209,3.69-10.2-8.9-3.473,3.907,9.334,8.465-4.775,3.69-8.465-7.6-8.248,9.117L258,453.84Z" transform="translate(-233.038 -404.35)"/></g><g class="w" transform="translate(0 0)"><path class="x" d="M265.9,427.1,281.1,436l-3.256,3.473L269.16,434.7l-1.954,3.256,7.814,4.775-3.039,3.256-7.163-4.124-4.558,7.814-5.861-3.256Z" transform="translate(-237.252 -409.735)"/></g><g class="w" transform="translate(0 0)"><path class="x" d="M257.327,424l12.155,4.124-1.736,3.039-6.946-2.171-.868,2.6,6.295,2.388-1.736,2.822-5.861-1.954-2.171,6.295-4.558-1.52Z" transform="translate(-240.179 -413.364)"/></g><g class="w" transform="translate(0 0)"><path class="x" d="M251.171,421.2l10.636,1.519-1.085,2.6-6.078-.868-.434,2.388,5.644.868-.868,2.6-4.992-.651-.868,5.427L249,434.441Z" transform="translate(-243.573 -416.642)"/></g></g><g transform="translate(291.79 1185.273)"><g class="y"><path class="z" d="M194.4,732.773l4.341-18.45,32.776-3.69-27.784-17.8,4.341-18.233,42.978,28.869,39.288,7.163-3.256,25.4-42.761-9.985Z" transform="translate(-122.987 -510.067)"/></g><g class="y"><path class="z" d="M201,706.324l3.473-18.45,28.218-6.078L208.6,665.95l3.473-18.45,37.118,25.83,33.862,4.558-2.6,25.613-36.9-6.946Z" transform="translate(-115.261 -541.791)"/></g><g class="y"><path class="z" d="M206.4,673.134l2.822-14.543,21.706-4.775-18.45-12.372L215.3,626.9l28.652,19.97L270,650.343l-1.954,19.97-28.435-5.427Z" transform="translate(-108.939 -565.906)"/></g><g class="y"><path class="z" d="M212.5,646.913l3.69-10.853,17.582-1.085-13.024-11.721,3.69-10.853,20.187,18.885,20.187,5.644L260.9,652.122l-21.706-7.38Z" transform="translate(-101.798 -582.88)"/></g><g class="y"><path class="z" d="M220.7,626.74l3.907-6.946,10.853.651-6.295-8.9,3.907-6.946,9.551,14.326,11.5,5.427-4.558,9.768-12.155-6.729Z" transform="translate(-92.199 -592.01)"/></g><g class="y"><path class="z" d="M227.7,613.575l2.388-4.341h5.861l-3.039-4.992L235.3,599.9l4.558,8.031,5.861,2.822-2.822,6.078-6.295-3.473Z" transform="translate(-84.005 -597.512)"/></g><g class="y"><path class="z" d="M163.6,749.256l34.3-18.45,46.885,13.458-27.133-23.443,8.9-20.621,44.5,42.978,44.932,16.714-9.117,29.3-48.4-20.621Z" transform="translate(-159.042 -480.099)"/></g><g class="y"><path class="z" d="M111.3,762.047l52.963-16.714L225.04,776.59,194.652,736.65l16.714-18.45,63.816,51.227,80.964,25.4-59.258,60.994-60.343-41.459Z" transform="translate(-220.265 -459.028)"/></g></g><g transform="translate(405.53 1032.479)"><g class="aa"><path class="ab" d="M273.8,541.158l29.738-4.341,21.923,29.3,13.024-34.3L368,527.7l-25.83,59.692,5.644,39.505L320.9,630.8,315.259,591.3Z" transform="translate(-143.78 -529.237)"/></g><g class="aa"><path class="ab" d="M243.4,572.3l22.574-11.287,25.613,18.233.868-31.474,22.357-11.07-4.341,55.351,15.411,30.823-20.4,10.2-15.411-30.823Z" transform="translate(-179.367 -518.702)"/></g><g class="aa"><path class="ab" d="M235.4,592.062l10.636-10.636,19.536,6.946-7.163-19.536L269.045,558.2l11.07,34.947,16.5,16.5-9.551,9.551-16.5-16.5Z" transform="translate(-188.732 -493.534)"/></g><g class="aa"><path class="ab" d="M231,598.543l5.861-7.38,12.59,3.039L243.59,582.48l5.861-7.38,9.334,20.838,11.5,9.117-5.209,6.729-11.5-9.117Z" transform="translate(-193.882 -473.75)"/></g><g class="aa"><path class="ab" d="M228.4,601.694l3.039-4.775,8.682,1.52-4.992-7.163,3.039-4.775,8.248,13.024,8.465,5.427-2.822,4.341-8.465-5.427Z" transform="translate(-196.926 -460.405)"/></g><g class="aa"><path class="ab" d="M225.7,606.073l2.171-3.907,6.729.651-4.124-5.209,2.171-3.907,6.729,9.551,6.729,3.69-1.954,3.69-6.729-3.69Z" transform="translate(-200.087 -451.976)"/></g><g class="aa"><path class="ab" d="M222.2,611.59l2.171-3.907h5.861l-3.256-4.775L229.146,599l5.209,8.682L240,610.721l-1.954,3.69-5.644-3.039Z" transform="translate(-204.184 -445.772)"/></g><g class="aa"><path class="ab" d="M220.1,613.868l1.736-3.039,4.992.434-3.039-4.124,1.736-3.039,4.992,7.38,4.992,2.6-1.519,2.822L229,614.3Z" transform="translate(-206.642 -439.802)"/></g><g class="aa"><path class="ab" d="M218.7,617.517l1.3-2.822h4.341l-2.6-3.473,1.3-2.822,4.341,6.078,4.341,2.171-1.3,2.6-4.341-2.171Z" transform="translate(-208.281 -434.768)"/></g><g class="aa"><path class="ab" d="M217.6,618.395l.868-1.954h3.039l-1.954-2.388.868-1.954,3.256,4.341,3.039,1.519-.868,1.737-3.039-1.52Z" transform="translate(-209.569 -430.437)"/></g><g class="aa"><path class="ab" d="M217.1,620.544l.651-1.737,2.388-.217-1.519-1.954.651-1.737,2.6,3.473,2.388,1.085-.651,1.519-2.388-1.085Z" transform="translate(-210.154 -427.159)"/></g><g class="aa"><path class="ab" d="M216.3,621.524l.651-1.3H218.9l-1.3-1.519.651-1.3,2.388,2.6,2.171.868-.434,1.085-2.171-.868Z" transform="translate(-211.091 -424.233)"/></g><g class="aa"><path class="ab" d="M215.8,622.356l.434-1.085h1.736l-1.085-1.085.434-1.085,1.954,2.171,1.737.651-.434.868-1.737-.651Z" transform="translate(-211.676 -422.243)"/></g><g class="aa"><path class="ab" d="M215.5,623.222l.434-.868h1.3l-.868-1.085.434-.868,1.519,1.736,1.519.651-.434.868L217.888,623Z" transform="translate(-212.027 -420.721)"/></g><g class="aa"><path class="ab" d="M215.2,624.422l.217-.868,1.085-.217-.868-.868.217-.868,1.3,1.519,1.3.434-.217.868-1.3-.434Z" transform="translate(-212.378 -419.316)"/></g><g class="aa"><path class="ab" d="M215,625.071l.217-.651.868-.217-.651-.651.217-.651,1.085,1.3,1.085.434-.217.651-1.085-.434Z" transform="translate(-212.612 -417.794)"/></g><g class="aa"><path class="ab" d="M214.7,625.971l.217-.651.868-.217-.651-.651.217-.651.868,1.085.868.217-.217.651-.868-.217Z" transform="translate(-212.964 -416.741)"/></g><g class="aa"><path class="ab" d="M214.6,626.654V626l.651-.217-.434-.434V624.7l.868.868.651.217v.434l-.651-.217Z" transform="translate(-213.081 -415.687)"/></g><g class="aa"><path class="ab" d="M214.4,626.9v-.434l.434-.217-.434-.217V625.6l.868.434h.651v.434h-.651Z" transform="translate(-213.315 -414.634)"/></g><g class="aa"><path class="ab" d="M214.2,627.4v-.434l.434-.217-.434-.217V626.1l.868.651h.651v.434h-.651Z" transform="translate(-213.549 -414.048)"/></g><g class="aa"><path class="ab" d="M214.2,627.568v-.217l.434-.217-.434-.217V626.7l.651.434h.434v.217h-.434Z" transform="translate(-213.549 -413.346)"/></g><g class="aa"><path class="ab" d="M213.7,629.622v-.868l.868-.434-.868-.651V626.8l1.519,1.085,1.085.217v.651l-1.085-.217Z" transform="translate(-214.134 -413.229)"/></g><g class="aa"><path class="ab" d="M320.512,524.5l23.66,7.163,2.6,40.591,24.962-32.125,23.443,7.163-46.017,54.483-13.892,45.149L314,640.411l13.892-45.149Z" transform="translate(-96.721 -532.983)"/></g><g class="aa"><path class="ab" d="M373.946,534.2l19.97,14.543L383.28,588.031l34.079-22.14,19.753,14.543L375.9,616.9l-27.784,38.2L330.1,642.08l27.784-38.2Z" transform="translate(-77.874 -521.628)"/></g><g class="aa"><path class="ab" d="M415.31,556.7l13.458,20.621-23.877,32.993,39.722-8.682,13.458,20.621-70.111,12.373-39.505,25.83L336.3,641.788l39.505-25.83Z" transform="translate(-70.616 -495.289)"/></g></g><g transform="translate(270.518 970.382)"><g class="ac"><path class="ad" d="M248.885,565.3l57.955,36.032-10.2,16.28-34.3-21.489-8.248,13.241,33.862,21.055-9.117,15.194-34.079-20.838-19.318,31.04L202,641.272Z" transform="translate(-92.818 -423.125)"/></g><g class="ac"><path class="ad" d="M284.724,579.6l64.9,34.3-5.861,22.14-37.552-17.365-9.117,18.45,41.893,20.621-5.427,23.443-47.1-22.791-21.489,42.978L225.9,677.929Z" transform="translate(-64.84 -406.385)"/></g><g class="ac"><path class="ad" d="M298.162,594.1l75.1,18.45-3.69,21.055-43.846-8.9-4.341,18.45,45.149,9.117-4.124,21.272-46.234-9.117-10.2,43.2L273.2,699.809Z" transform="translate(-9.47 -389.411)"/></g><g class="ac"><path class="ad" d="M325.114,598.9l40.808,6.078-1.737,11.5-24.311-3.69-1.3,9.334,20.621,3.039-1.519,10.853-20.621-3.039L333.8,654.685,317.3,652.3Z" transform="translate(42.154 -383.792)"/></g><g class="ac"><path class="ad" d="M220.542,556.7l39.288,24.528-6.946,11.07-23.443-14.543-5.644,8.9,23.009,14.326-6.295,10.2-23.226-14.109-13.024,21.055L188.2,608.144Z" transform="translate(-108.972 -433.192)"/></g><g class="ac"><path class="ad" d="M207.169,545.9l23.877,22.357-4.775,7.38-15.845-14.326-4.992,5.427,16.5,15.411-4.124,6.729-18.233-16.063-11.721,12.589-9.551-8.9Z" transform="translate(-120.562 -445.834)"/></g><g class="ac"><path class="ad" d="M194.038,539.1l16.931,15.628-4.341,4.775-9.985-9.334-3.69,3.907,9.768,9.117-4.124,4.341-9.985-9.117-8.465,8.9-6.946-7.6Z" transform="translate(-126.532 -453.795)"/></g><g class="ac"><path class="ad" d="M186.148,532.7l12.59,13.024-3.69,3.473-7.6-7.814-3.039,2.822,7.38,7.6-3.256,3.256-7.38-7.6-6.946,6.729L169,548.98Z" transform="translate(-131.448 -461.287)"/></g><g class="ac"><path class="ad" d="M178.807,528.5l9.551,9.768-2.822,2.6-5.644-5.861-2.171,2.171,5.427,5.644-2.388,2.388-5.644-5.643-5.209,4.992L166,537.617Z" transform="translate(-134.96 -466.203)"/></g><g class="ac"><path class="ad" d="M175.1,524.1l6.512,8.9-2.388,1.736-3.907-5.21-1.954,1.52,3.69,5.209-2.171,1.736-3.907-5.21-4.775,3.473-2.6-3.473Z" transform="translate(-137.77 -471.354)"/></g><g class="ac"><path class="ad" d="M171.117,521.1l4.992,6.729-1.954,1.3-3.039-4.124-1.519,1.085L172.419,530l-1.736,1.3-3.039-3.907-3.69,2.6L162,527.178Z" transform="translate(-139.643 -474.866)"/></g><g class="ac"><path class="ad" d="M168.08,518.5l4.124,5.643-1.519,1.085-2.388-3.256-1.3.868,2.388,3.256-1.519,1.085-2.388-3.256-3.039,2.171-1.737-2.171Z" transform="translate(-141.164 -477.909)"/></g><g class="ac"><path class="ad" d="M165.912,516.1l3.473,4.992-1.3,1.085-2.171-2.822-1.085.868L167,523.046l-1.3.868-2.171-2.822-2.6,1.954-1.519-1.954Z" transform="translate(-142.686 -480.719)"/></g><g class="ac"><path class="ad" d="M163.375,514.4l2.6,3.473-1.085.651-1.519-2.171-.868.651,1.519,2.171-.868.651-1.519-2.171-1.954,1.3-1.085-1.52Z" transform="translate(-143.623 -482.709)"/></g><g class="ac"><path class="ad" d="M162.175,512.6l2.6,3.473-1.085.651-1.519-2.171-.868.651,1.519,2.171-.868.651-1.519-2.171-1.954,1.3-1.085-1.52Z" transform="translate(-145.027 -484.816)"/></g><g class="ac"><path class="ad" d="M161.075,510.5l2.6,3.473-1.085.651-1.519-2.171-.868.651,1.519,2.171-.868.651-1.519-2.171-1.954,1.3-1.085-1.519Z" transform="translate(-146.315 -487.274)"/></g><g class="ac"><path class="ad" d="M159.675,508.5l2.6,3.473-1.085.651-1.519-2.171-.868.651,1.519,2.171-.868.651-1.519-2.171-1.954,1.3-1.085-1.52Z" transform="translate(-147.954 -489.616)"/></g></g></g></svg>