<svg xmlns="http://www.w3.org/2000/svg" viewBox="0 0 207.17 547.03">
  <g id="Layer_2" data-name="Layer 2">
    <g id="Layer_1-2" data-name="Layer 1">
      <g>
        <path d="M51.91,433.7h107.4v35.86h-11.5c8.92,8.12,13.28,19.62,13.28,31.9C161.09,527.81,146,547,112,547h-60V509.39h53.9c16.64,0,23.18-6.54,23.18-17.84,0-11.09-7.33-20.21-25.36-20.21H51.91Z" style="fill: #fff"/>
        <path d="M97.88,292h61.43v37.65H104c-15.45,0-22,6.74-22,17.64,0,12.08,7.53,21.39,25.36,21.39h51.92v37.65H51.91V370.49H63.6c-8.91-8.52-13.47-20.61-13.47-34.08C50.13,311.24,64.59,292,97.88,292Z" style="fill: #fff"/>
        <path d="M20,270.42c-11.29,0-20-9.11-20-23s8.12-23,19.42-23c11.89,0,20.6,9.12,20.6,23S31.31,270.42,20,270.42Z" style="fill: #fff"/>
        <rect x="51.91" y="228.62" width="107.39" height="37.65" style="fill: #fff"/>
        <path d="M55.88,153V127.47H84V152h75.3v37.65H84v15.65H55.88V189.69H53.1c-25.76,0-42.6-16.05-42.6-44.78,0-9.11,1.78-18.82,5.55-25l26.55,9.31a24.14,24.14,0,0,0-3.17,11.29C39.43,148.48,44,153,53.5,153Z" style="fill: #fff"/>
        <g>
          <path d="M176.65,466.6v-6.67c0-5.35,3.51-9,8.43-9s8.43,3.61,8.43,9v6.67ZM192.4,460c0-4.77-3-7.83-7.32-7.83s-7.33,3.06-7.33,7.83v5.35H192.4Z" style="fill: #fff"/>
          <path d="M192.4,435.07h1.11V446.7H176.65V435.43h1.1v10.05h6.65v-9h1.09v9h6.91Z" style="fill: #fff"/>
          <path d="M185.15,418.64v-1.18h6.31a8.66,8.66,0,0,1,2.17,6,8.44,8.44,0,0,1-8.55,8.82c-4.92,0-8.55-3.73-8.55-8.84a8.23,8.23,0,0,1,2.31-6.07l.82.77a7.09,7.09,0,0,0-2,5.27A7.42,7.42,0,1,0,191,418.64Z" style="fill: #fff"/>
          <path d="M193.51,400.36l-5.64,4A12.28,12.28,0,0,1,188,406v4.82h5.52v1.23H176.65V406c0-4.24,2.11-6.79,5.68-6.79a5.18,5.18,0,0,1,5.28,3.95l5.9-4.22Zm-6.6,5.66c0-3.61-1.69-5.54-4.58-5.54s-4.58,1.93-4.58,5.54v4.82h9.16Z" style="fill: #fff"/>
          <path d="M192.4,383.09h1.11v11.63H176.65V383.45h1.1v10h6.65v-9h1.09v9h6.91Z" style="fill: #fff"/>
          <path d="M192.4,367h1.11v11.64H176.65V367.33h1.1v10.05h6.65v-9h1.09v9h6.91Z" style="fill: #fff"/>
          <path d="M191.34,364.2l-.91-.55a8,8,0,0,0,2.11-5.57c0-3.37-1.46-4.86-3.3-4.86-5.05,0-2,10.53-8.23,10.53-2.39,0-4.48-1.83-4.48-6a9,9,0,0,1,1.51-5.08l1,.46a8.32,8.32,0,0,0-1.42,4.62c0,3.28,1.52,4.75,3.37,4.75,5.06,0,2.07-10.53,8.19-10.53,2.39,0,4.46,1.9,4.46,6.07A8.63,8.63,0,0,1,191.34,364.2Z" style="fill: #fff"/>
          <path d="M185.08,340.84a8.77,8.77,0,1,1,8.55-8.77A8.44,8.44,0,0,1,185.08,340.84Zm0-16.29a7.53,7.53,0,1,0,7.42,7.52A7.28,7.28,0,0,0,185.08,324.55Z" style="fill: #fff"/>
          <path d="M177.75,317.81H185v-9h1.1v9h7.45V319H176.65V307.76h1.1Z" style="fill: #fff"/>
          <path d="M185.08,296.85a8.41,8.41,0,0,1-8.55-8.74,8.07,8.07,0,0,1,2.33-6l.8.77a7.08,7.08,0,0,0-2,5.18,7.42,7.42,0,1,0,14.84,0,7.07,7.07,0,0,0-2-5.18l.8-.77a8.05,8.05,0,0,1,2.36,6A8.42,8.42,0,0,1,185.08,296.85Z" style="fill: #fff"/>
          <path d="M185.08,280a8.77,8.77,0,1,1,8.55-8.77A8.44,8.44,0,0,1,185.08,280Zm0-16.29a7.53,7.53,0,1,0,7.42,7.52A7.28,7.28,0,0,0,185.08,263.68Z" style="fill: #fff"/>
          <path d="M176.65,244.44h16.86v1l-14.65,11.49h14.65v1.23H176.65v-1l14.64-11.46H176.65Z" style="fill: #fff"/>
          <path d="M176.65,224.83h16.86v1l-14.65,11.49h14.65v1.23H176.65v-1l14.64-11.47H176.65Z" style="fill: #fff"/>
          <path d="M192.4,207.32h1.11V219H176.65V207.68h1.1v10h6.65v-9h1.09v9h6.91Z" style="fill: #fff"/>
          <path d="M185.08,204.55a8.41,8.41,0,0,1-8.55-8.74,8.05,8.05,0,0,1,2.33-6l.8.77a7,7,0,0,0-2,5.18,7.42,7.42,0,1,0,14.84,0,7.08,7.08,0,0,0-2-5.18l.8-.77a8,8,0,0,1,2.36,6A8.42,8.42,0,0,1,185.08,204.55Z" style="fill: #fff"/>
          <path d="M177.75,182.68v6.07h-1.1V175.38h1.1v6.07h15.76v1.23Z" style="fill: #fff"/>
          <path d="M176.65,172.34v-1.22h16.86v1.22Z" style="fill: #fff"/>
          <path d="M185.08,166.85a8.77,8.77,0,1,1,8.55-8.77A8.44,8.44,0,0,1,185.08,166.85Zm0-16.28a7.53,7.53,0,1,0,7.42,7.51A7.28,7.28,0,0,0,185.08,150.57Z" style="fill: #fff"/>
          <path d="M176.65,131.32h16.86v1l-14.65,11.49h14.65v1.23H176.65v-1l14.64-11.47H176.65Z" style="fill: #fff"/>
        </g>
        <path d="M56,35.3h47.91Q116.81,35.3,123,41a18.74,18.74,0,0,1,6.24,14.56q0,8.73-5.55,13.28T106.1,73.35H56v31.92h56.23q24.57,0,36.85-12.39c8.2-8.25,12.29-18.59,12.29-27.46A46.41,46.41,0,0,0,158,47.79a39,39,0,0,0-6-10.14h.31c16.84,0,26,8.52,26,28.73,0,12.68-4.36,27.34-11.49,36.26l26.35,13.67c9.31-13.08,14.07-32.69,14.07-53.3,0-40-19.22-63-59.84-63H56Z" style="fill: #fff"/>
      </g>
    </g>
  </g>
</svg>
