<?xml version="1.0" encoding="utf-8"?>
<!-- Generator: Adobe Illustrator 25.2.3, SVG Export Plug-In . SVG Version: 6.00 Build 0)  -->
<svg version="1.1" xmlns="http://www.w3.org/2000/svg" xmlns:xlink="http://www.w3.org/1999/xlink" x="0px" y="0px"
	 viewBox="0 0 119.3 440.4" style="enable-background:new 0 0 119.3 440.4;" xml:space="preserve">
<style type="text/css">
	.st0{display:none;}
	.st1{display:inline;}
	.st2{enable-background:new    ;}
	.st3{fill:#FFFFFF;}
</style>
<g id="Layer_2" class="st0">
	<rect y="-1.6" class="st1" width="147" height="442"/>
</g>
<g id="Layer_1">
	<g transform="translate(-1642 -559)">
		<g class="st2">
			<path class="st3" d="M1642,933.5v-26.4h36.3c25.5-0.1,32.9,20.8,32.9,46.2c-0.1,25.3-7.4,46.3-32.9,46.2H1642v-26.4h34.7
				c11.1,0.1,13-9,13.2-19.8c-0.2-10.8-2.1-19.9-13.2-19.8H1642z"/>
			<path class="st3" d="M1642,829.3v-26.4h67.6v29.7l-41.3,36.3h41.3v26.4H1642v-36.3l35.8-29.7H1642z"/>
			<path class="st3" d="M1642,761.2h67.6v26.4H1642V761.2z"/>
			<path class="st3" d="M1642.1,747.2v-82.4h21.4v56.1h8.2v-49.5h19.8v49.5h18.2v26.4H1642.1z"/>
			<path class="st3" d="M1666.3,611.6l-24.2-19.8v-31.3l44.5,37.9h23.1v26.4h-23.1l-44.5,37.9v-31.3L1666.3,611.6z"/>
		</g>
		<g class="st2">
			<path class="st3" d="M1741.1,999.4v-9.1c0-2.2,0.4-4.1,1.2-5.7c0.8-1.7,2-3,3.5-3.9c1.5-0.9,3.2-1.4,5.2-1.4c2,0,3.7,0.5,5.2,1.4
				c1.5,0.9,2.7,2.2,3.5,3.9c0.8,1.7,1.2,3.6,1.2,5.7v9.1H1741.1z M1757.2,990.6c0-2-0.6-3.6-1.7-4.8c-1.1-1.2-2.6-1.8-4.5-1.8
				c-1.9,0-3.4,0.6-4.5,1.8c-1.1,1.2-1.7,2.8-1.7,4.8v4.2h12.4V990.6z"/>
			<path class="st3" d="M1757.3,960.5h3.7v15.4h-19.9v-15.1h3.7v10.5h4.3V962h3.6v9.3h4.6V960.5z"/>
			<path class="st3" d="M1750.7,943.4v-4.2h8.1c0.8,1.1,1.4,2.3,1.9,3.8c0.4,1.4,0.7,2.9,0.7,4.3c0,2.1-0.4,3.9-1.3,5.6
				c-0.9,1.7-2.1,2.9-3.7,3.9c-1.6,0.9-3.3,1.4-5.3,1.4c-2,0-3.7-0.5-5.3-1.4c-1.6-0.9-2.8-2.2-3.7-3.9c-0.9-1.7-1.3-3.5-1.3-5.6
				c0-1.7,0.3-3.3,0.9-4.8c0.6-1.4,1.4-2.6,2.6-3.6l2.7,3c-1.5,1.4-2.2,3.1-2.2,5.2c0,1.3,0.3,2.4,0.8,3.4c0.5,1,1.3,1.8,2.2,2.3
				s2.1,0.8,3.3,0.8c1.2,0,2.3-0.3,3.3-0.8s1.7-1.3,2.3-2.3c0.5-1,0.8-2.1,0.8-3.3c0-1.3-0.3-2.5-0.9-3.6H1750.7z"/>
			<path class="st3" d="M1761,922.2l-5.6,3.8v0.2v4h5.6v4.6h-19.9v-8.6c0-1.8,0.3-3.3,0.9-4.6c0.6-1.3,1.4-2.3,2.5-3
				c1.1-0.7,2.4-1.1,3.8-1.1c1.5,0,2.8,0.4,3.8,1.1c1.1,0.7,1.9,1.7,2.5,3l6.4-4.5V922.2z M1745.7,923.4c-0.6,0.7-0.9,1.8-0.9,3.2
				v3.8h6.9v-3.8c0-1.4-0.3-2.4-0.9-3.2c-0.6-0.7-1.5-1.1-2.6-1.1C1747.2,922.3,1746.3,922.6,1745.7,923.4z"/>
			<path class="st3" d="M1757.3,898.5h3.7V914h-19.9v-15.1h3.7v10.5h4.3v-9.3h3.6v9.3h4.6V898.5z"/>
			<path class="st3" d="M1757.3,879.4h3.7v15.4h-19.9v-15.1h3.7v10.5h4.3V881h3.6v9.3h4.6V879.4z"/>
			<path class="st3" d="M1760.7,873.8c-0.4,1.5-1,2.7-1.7,3.5l-3.5-1.6c0.6-0.9,1.1-1.9,1.5-3c0.4-1.2,0.6-2.4,0.6-3.5
				c0-1.3-0.2-2.3-0.6-2.9c-0.4-0.6-0.9-0.9-1.6-0.9c-0.5,0-0.9,0.2-1.2,0.6c-0.3,0.4-0.6,0.8-0.8,1.4c-0.2,0.6-0.4,1.4-0.6,2.3
				c-0.4,1.5-0.7,2.8-1.1,3.7c-0.4,1-0.9,1.8-1.7,2.5c-0.8,0.7-1.9,1-3.2,1c-1.2,0-2.2-0.3-3.1-0.9c-0.9-0.6-1.7-1.6-2.2-2.8
				c-0.6-1.3-0.8-2.8-0.8-4.6c0-1.3,0.2-2.5,0.5-3.7c0.3-1.2,0.7-2.3,1.3-3.2l3.5,1.4c-1,1.8-1.6,3.7-1.6,5.5c0,1.3,0.2,2.2,0.6,2.9
				c0.4,0.6,1,0.9,1.7,0.9s1.2-0.4,1.5-1.1c0.3-0.7,0.7-1.8,1-3.3c0.4-1.5,0.7-2.8,1.1-3.7c0.4-1,0.9-1.8,1.7-2.5
				c0.8-0.7,1.8-1,3.2-1c1.1,0,2.2,0.3,3.1,1s1.7,1.6,2.2,2.9c0.6,1.3,0.8,2.8,0.8,4.6C1761.3,870.8,1761.1,872.3,1760.7,873.8z"/>
			<path class="st3" d="M1760,845.5c-0.9,1.7-2.1,3-3.7,3.9c-1.6,0.9-3.3,1.4-5.3,1.4c-2,0-3.7-0.5-5.3-1.4
				c-1.6-0.9-2.8-2.2-3.7-3.9c-0.9-1.7-1.3-3.5-1.3-5.6c0-2.1,0.4-3.9,1.3-5.6c0.9-1.7,2.1-3,3.7-3.9c1.6-0.9,3.3-1.4,5.3-1.4
				c2,0,3.7,0.5,5.3,1.4c1.6,0.9,2.8,2.2,3.7,3.9c0.9,1.7,1.3,3.5,1.3,5.6C1761.3,841.9,1760.9,843.8,1760,845.5z M1756.6,836.7
				c-0.5-0.9-1.3-1.7-2.3-2.2c-1-0.5-2.1-0.8-3.3-0.8s-2.3,0.3-3.3,0.8c-1,0.5-1.7,1.3-2.3,2.2c-0.5,0.9-0.8,2-0.8,3.2
				c0,1.2,0.3,2.2,0.8,3.2c0.5,0.9,1.3,1.7,2.3,2.2c1,0.5,2.1,0.8,3.3,0.8s2.3-0.3,3.3-0.8c1-0.5,1.7-1.3,2.3-2.2
				c0.5-0.9,0.8-2,0.8-3.2C1757.4,838.7,1757.1,837.6,1756.6,836.7z"/>
			<path class="st3" d="M1744.8,820.9h5.3v-9.2h3.7v9.2h7.3v4.6h-19.9v-15.1h3.7V820.9z"/>
			<path class="st3" d="M1760,795.2c-0.9,1.6-2.1,2.9-3.7,3.9c-1.6,0.9-3.3,1.4-5.3,1.4c-2,0-3.7-0.5-5.3-1.4
				c-1.6-0.9-2.8-2.2-3.7-3.9c-0.9-1.6-1.3-3.5-1.3-5.5c0-1.7,0.3-3.3,0.9-4.7c0.6-1.4,1.5-2.6,2.6-3.5l2.7,3c-1.6,1.3-2.3,3-2.3,5
				c0,1.2,0.3,2.3,0.8,3.3c0.5,1,1.3,1.7,2.3,2.3c1,0.5,2.1,0.8,3.3,0.8s2.3-0.3,3.3-0.8c1-0.5,1.7-1.3,2.3-2.3
				c0.5-1,0.8-2.1,0.8-3.3c0-2-0.8-3.7-2.4-5l2.7-3c1.2,0.9,2,2.1,2.6,3.5c0.6,1.4,0.9,3,0.9,4.7
				C1761.3,791.7,1760.9,793.6,1760,795.2z"/>
			<path class="st3" d="M1760,774.7c-0.9,1.7-2.1,3-3.7,3.9c-1.6,0.9-3.3,1.4-5.3,1.4c-2,0-3.7-0.5-5.3-1.4
				c-1.6-0.9-2.8-2.2-3.7-3.9c-0.9-1.7-1.3-3.5-1.3-5.6c0-2.1,0.4-3.9,1.3-5.6c0.9-1.7,2.1-3,3.7-3.9c1.6-0.9,3.3-1.4,5.3-1.4
				c2,0,3.7,0.5,5.3,1.4c1.6,0.9,2.8,2.2,3.7,3.9c0.9,1.7,1.3,3.5,1.3,5.6C1761.3,771.2,1760.9,773.1,1760,774.7z M1756.6,766
				c-0.5-0.9-1.3-1.7-2.3-2.2c-1-0.5-2.1-0.8-3.3-0.8s-2.3,0.3-3.3,0.8c-1,0.5-1.7,1.3-2.3,2.2c-0.5,0.9-0.8,2-0.8,3.2
				c0,1.2,0.3,2.2,0.8,3.2c0.5,0.9,1.3,1.7,2.3,2.2c1,0.5,2.1,0.8,3.3,0.8s2.3-0.3,3.3-0.8c1-0.5,1.7-1.3,2.3-2.2
				c0.5-0.9,0.8-2,0.8-3.2C1757.4,768,1757.1,766.9,1756.6,766z"/>
			<path class="st3" d="M1741.1,736.5h19.9v3.8l-12.1,9.9h12.1v4.6h-19.9V751l12.1-9.9h-12.1V736.5z"/>
			<path class="st3" d="M1741.1,713.5h19.9v3.8l-12.1,9.9h12.1v4.6h-19.9v-3.8l12.1-9.9h-12.1V713.5z"/>
			<path class="st3" d="M1757.3,693.3h3.7v15.4h-19.9v-15.1h3.7v10.5h4.3v-9.3h3.6v9.3h4.6V693.3z"/>
			<path class="st3" d="M1760,685.7c-0.9,1.6-2.1,2.9-3.7,3.9c-1.6,0.9-3.3,1.4-5.3,1.4c-2,0-3.7-0.5-5.3-1.4
				c-1.6-0.9-2.8-2.2-3.7-3.9c-0.9-1.6-1.3-3.5-1.3-5.5c0-1.7,0.3-3.3,0.9-4.7c0.6-1.4,1.5-2.6,2.6-3.5l2.7,3c-1.6,1.3-2.3,3-2.3,5
				c0,1.2,0.3,2.3,0.8,3.3c0.5,1,1.3,1.7,2.3,2.3c1,0.5,2.1,0.8,3.3,0.8s2.3-0.3,3.3-0.8c1-0.5,1.7-1.3,2.3-2.3
				c0.5-1,0.8-2.1,0.8-3.3c0-2-0.8-3.7-2.4-5l2.7-3c1.2,0.9,2,2.1,2.6,3.5c0.6,1.4,0.9,3,0.9,4.7
				C1761.3,682.2,1760.9,684,1760,685.7z"/>
			<path class="st3" d="M1744.8,664.9v6.4h-3.8v-17.4h3.8v6.4h16.2v4.6H1744.8z"/>
			<path class="st3" d="M1741.1,651.4v-4.6h19.9v4.6H1741.1z"/>
			<path class="st3" d="M1760,638c-0.9,1.7-2.1,3-3.7,3.9c-1.6,0.9-3.3,1.4-5.3,1.4c-2,0-3.7-0.5-5.3-1.4c-1.6-0.9-2.8-2.2-3.7-3.9
				c-0.9-1.7-1.3-3.5-1.3-5.6c0-2.1,0.4-3.9,1.3-5.6c0.9-1.7,2.1-3,3.7-3.9c1.6-0.9,3.3-1.4,5.3-1.4c2,0,3.7,0.5,5.3,1.4
				c1.6,0.9,2.8,2.2,3.7,3.9c0.9,1.7,1.3,3.5,1.3,5.6C1761.3,634.5,1760.9,636.4,1760,638z M1756.6,629.3c-0.5-0.9-1.3-1.7-2.3-2.2
				c-1-0.5-2.1-0.8-3.3-0.8s-2.3,0.3-3.3,0.8c-1,0.5-1.7,1.3-2.3,2.2c-0.5,0.9-0.8,2-0.8,3.2c0,1.2,0.3,2.2,0.8,3.2
				c0.5,0.9,1.3,1.7,2.3,2.2c1,0.5,2.1,0.8,3.3,0.8s2.3-0.3,3.3-0.8c1-0.5,1.7-1.3,2.3-2.2c0.5-0.9,0.8-2,0.8-3.2
				C1757.4,631.3,1757.1,630.2,1756.6,629.3z"/>
			<path class="st3" d="M1741.1,599.8h19.9v3.8l-12.1,9.9h12.1v4.6h-19.9v-3.8l12.1-9.9h-12.1V599.8z"/>
		</g>
	</g>
</g>
</svg>
